<?xml version="1.0" encoding="UTF-8"?>
<!DOCTYPE svg PUBLIC "-//W3C//DTD SVG 1.1//EN" "http://www.w3.org/Graphics/SVG/1.1/DTD/svg11.dtd">
<svg xmlns="http://www.w3.org/2000/svg" version="1.1" width="2000px" height="2000px" style="shape-rendering:geometricPrecision; text-rendering:geometricPrecision; image-rendering:optimizeQuality; fill-rule:evenodd; clip-rule:evenodd" xmlns:xlink="http://www.w3.org/1999/xlink">
<g><path style="opacity:0.999" fill="#000000" d="M 954.5,-0.5 C 984.5,-0.5 1014.5,-0.5 1044.5,-0.5C 1316.51,15.946 1546.01,122.279 1733,318.5C 1896.68,498.301 1985.51,710.301 1999.5,954.5C 1999.5,984.5 1999.5,1014.5 1999.5,1044.5C 1984.16,1305.62 1884.82,1528.45 1701.5,1713C 1518.25,1889.42 1298.92,1984.92 1043.5,1999.5C 1014.17,1999.5 984.833,1999.5 955.5,1999.5C 683.071,1983.34 453.238,1877.01 266,1680.5C 102.32,1500.7 13.4869,1288.7 -0.5,1044.5C -0.5,1014.5 -0.5,984.5 -0.5,954.5C 16.0356,681.976 122.702,452.142 319.5,265C 499.142,101.9 710.809,13.4002 954.5,-0.5 Z"/></g>
<g><path style="opacity:1" fill="#7e7e7e" d="M 593.5,556.5 C 593.5,848.167 593.5,1139.83 593.5,1431.5C 635.5,1431.5 677.5,1431.5 719.5,1431.5C 677.337,1432.5 635.003,1432.83 592.5,1432.5C 592.167,1140.33 592.5,848.333 593.5,556.5 Z"/></g>
<g><path style="opacity:1" fill="#fdfdfd" d="M 593.5,556.5 C 635.833,556.5 678.167,556.5 720.5,556.5C 720.5,644.167 720.5,731.833 720.5,819.5C 906.5,819.5 1092.5,819.5 1278.5,819.5C 1278.5,731.833 1278.5,644.167 1278.5,556.5C 1321.17,556.5 1363.83,556.5 1406.5,556.5C 1406.67,848.167 1406.5,1139.83 1406,1431.5C 1363.67,1432.83 1321.33,1432.83 1279,1431.5C 1278.5,1341.83 1278.33,1252.17 1278.5,1162.5C 1092.5,1162.5 906.5,1162.5 720.5,1162.5C 720.833,1252.33 720.499,1342 719.5,1431.5C 677.5,1431.5 635.5,1431.5 593.5,1431.5C 593.5,1139.83 593.5,848.167 593.5,556.5 Z"/></g>
<g><path style="opacity:1" fill="#000000" d="M 726.5,921.5 C 912.5,921.5 1098.5,921.5 1284.5,921.5C 1284.5,967.833 1284.5,1014.17 1284.5,1060.5C 1098.5,1060.5 912.5,1060.5 726.5,1060.5C 726.5,1014.17 726.5,967.833 726.5,921.5 Z"/></g>
</svg>
